<svg width="15" height="15" viewBox="0 0 10 10" fill="none" xmlns="http://www.w3.org/2000/svg">
<path d="M4.52834 6.9625L1.53084 3.53625C1.17709 3.13313 1.46459 2.5 2.00147 2.5H7.99647C8.11662 2.4999 8.23426 2.53443 8.33529 2.59946C8.43632 2.6645 8.51647 2.75727 8.56612 2.86668C8.61579 2.97609 8.63286 3.0975 8.61529 3.21636C8.59773 3.33522 8.54628 3.4465 8.46709 3.53688L5.46959 6.96188C5.41093 7.02901 5.33858 7.08281 5.25741 7.11968C5.17624 7.15654 5.08812 7.17561 4.99897 7.17561C4.90982 7.17561 4.8217 7.15654 4.74053 7.11968C4.65935 7.08281 4.58701 7.02901 4.52834 6.96188V6.9625Z" fill="white"/>
</svg>
