<svg width="20" height="20" viewBox="0 0 20 20" fill="none" xmlns="http://www.w3.org/2000/svg">
<path d="M10.0006 19.0445C10.3506 19.0364 10.6864 18.9049 10.9487 18.6731C11.211 18.4413 11.3829 18.1241 11.4339 17.7778H8.51172C8.5642 18.1336 8.74412 18.4581 9.018 18.6911C9.29188 18.9241 9.64107 19.0497 10.0006 19.0445Z" fill="white"/>
<path d="M18.2509 15.628L18.062 15.4613C17.5261 14.9839 17.0571 14.4364 16.6675 13.8336C16.2421 13.0016 15.9871 12.0931 15.9175 11.1613V8.41688C15.9153 8.08352 15.8855 7.75092 15.8286 7.42244C14.8876 7.22902 14.0423 6.71634 13.4359 5.97121C12.8294 5.22607 12.4991 4.29427 12.5009 3.33355V2.98355C11.9208 2.6981 11.2976 2.51039 10.6564 2.42799V1.72799C10.6564 1.53129 10.5783 1.34265 10.4392 1.20356C10.3001 1.06447 10.1115 0.986328 9.91476 0.986328C9.71805 0.986328 9.52941 1.06447 9.39032 1.20356C9.25123 1.34265 9.17309 1.53129 9.17309 1.72799V2.45577C7.73738 2.6583 6.42341 3.37341 5.47377 4.46907C4.52413 5.56473 4.00294 6.96696 4.00642 8.41688V11.1613C3.93684 12.0931 3.68186 13.0016 3.25642 13.8336C2.87358 14.4349 2.41209 14.9823 1.8842 15.4613L1.69531 15.628V17.1947H18.2509V15.628Z" fill="white"/>
<path d="M16.6684 6.11122C18.2025 6.11122 19.4462 4.86757 19.4462 3.33344C19.4462 1.79932 18.2025 0.555664 16.6684 0.555664C15.1343 0.555664 13.8906 1.79932 13.8906 3.33344C13.8906 4.86757 15.1343 6.11122 16.6684 6.11122Z" fill="white"/>
</svg>
