<svg width="12" height="12" viewBox="0 0 12 12" fill="none" xmlns="http://www.w3.org/2000/svg">
<path d="M0.146631 0.854143C0.100144 0.807655 0.0632674 0.752466 0.0381083 0.691727C0.0129493 0.630987 4.8983e-10 0.565887 0 0.500143C-4.8983e-10 0.434399 0.0129493 0.369299 0.0381083 0.30856C0.0632674 0.24782 0.100144 0.192631 0.146631 0.146143C0.193119 0.0996553 0.248309 0.0627792 0.309048 0.0376201C0.369788 0.012461 0.434888 -0.000488282 0.500632 -0.000488281C0.566375 -0.000488281 0.631476 0.012461 0.692215 0.0376201C0.752954 0.0627792 0.808144 0.0996553 0.854632 0.146143L6.00063 5.29314L11.1466 0.146143C11.1931 0.0996553 11.2483 0.0627792 11.309 0.0376201C11.3698 0.012461 11.4349 -0.000488281 11.5006 -0.000488281C11.5664 -0.000488281 11.6315 0.012461 11.6922 0.0376201C11.753 0.0627792 11.8081 0.0996553 11.8546 0.146143C11.9011 0.192631 11.938 0.24782 11.9632 0.30856C11.9883 0.369299 12.0013 0.434399 12.0013 0.500143C12.0013 0.565887 11.9883 0.630987 11.9632 0.691727C11.938 0.752466 11.9011 0.807655 11.8546 0.854143L6.70763 6.00014L11.8546 11.1461C11.9011 11.1926 11.938 11.2478 11.9632 11.3086C11.9883 11.3693 12.0013 11.4344 12.0013 11.5001C12.0013 11.5659 11.9883 11.631 11.9632 11.6917C11.938 11.7525 11.9011 11.8077 11.8546 11.8541C11.8081 11.9006 11.753 11.9375 11.6922 11.9627C11.6315 11.9878 11.5664 12.0008 11.5006 12.0008C11.4349 12.0008 11.3698 11.9878 11.309 11.9627C11.2483 11.9375 11.1931 11.9006 11.1466 11.8541L6.00063 6.70714L0.854632 11.8541C0.808144 11.9006 0.752954 11.9375 0.692215 11.9627C0.631476 11.9878 0.566375 12.0008 0.500632 12.0008C0.434888 12.0008 0.369788 11.9878 0.309048 11.9627C0.248309 11.9375 0.193119 11.9006 0.146631 11.8541C0.100144 11.8077 0.0632674 11.7525 0.0381083 11.6917C0.0129493 11.631 0 11.5659 0 11.5001C0 11.4344 0.0129493 11.3693 0.0381083 11.3086C0.0632674 11.2478 0.100144 11.1926 0.146631 11.1461L5.29363 6.00014L0.146631 0.854143Z" fill="#525252"/>
</svg>
