<svg width="17" height="14" viewBox="0 0 17 14" fill="none" xmlns="http://www.w3.org/2000/svg">
<path d="M8.73975 6.33594L14.0522 1.02344C14.4194 0.65625 15.0132 0.65625 15.3765 1.02344L16.2593 1.90625C16.6265 2.27344 16.6265 2.86719 16.2593 3.23047L12.4976 7L16.2632 10.7656C16.6304 11.1328 16.6304 11.7266 16.2632 12.0898L15.3804 12.9766C15.0132 13.3438 14.4194 13.3438 14.0562 12.9766L8.74365 7.66406C8.37256 7.29688 8.37256 6.70313 8.73975 6.33594ZM1.23975 7.66406L6.55225 12.9766C6.91944 13.3438 7.51319 13.3438 7.87647 12.9766L8.75928 12.0938C9.12647 11.7266 9.12647 11.1328 8.75928 10.7695L4.99756 7L8.76319 3.23438C9.13037 2.86719 9.13037 2.27344 8.76319 1.91016L7.88037 1.02344C7.51319 0.65625 6.91944 0.65625 6.55615 1.02344L1.24365 6.33594C0.872561 6.70313 0.872561 7.29688 1.23975 7.66406Z" fill="#237280"/>
</svg>
