<svg width="94" height="94" viewBox="0 0 94 94" fill="none" xmlns="http://www.w3.org/2000/svg">
<circle cx="47" cy="47" r="47" fill="#CA3636"/>
<path d="M47.0002 20.3333C37.8102 20.3333 30.3335 27.8099 30.3335 36.9999H37.0002C37.0002 31.4866 41.4868 26.9999 47.0002 26.9999C52.5135 26.9999 57.0002 31.4866 57.0002 36.9999C57.0002 40.5633 55.4868 41.8833 52.0635 44.5166C50.7902 45.4966 49.3535 46.6033 47.9768 47.9766C43.6035 52.3466 43.6502 56.6566 43.6668 56.9999V63.6666H50.3335V56.9699C50.3335 56.8899 50.4102 54.9666 52.6902 52.6899C53.7568 51.6233 54.9635 50.6966 56.1268 49.7999C59.6602 47.0799 63.6668 43.9999 63.6668 36.9999C63.6668 27.8099 56.1902 20.3333 47.0002 20.3333ZM43.6668 66.9999H50.3335V73.6666H43.6668V66.9999Z" fill="white"/>
</svg>
