<svg width="14" height="18" viewBox="0 0 14 18" fill="none" xmlns="http://www.w3.org/2000/svg">
<path d="M7.0026 0.666504C3.5026 0.666504 0.335938 3.34984 0.335938 7.49984C0.335938 10.1498 2.3776 13.2665 6.4526 16.8582C6.76927 17.1332 7.24427 17.1332 7.56094 16.8582C11.6276 13.2665 13.6693 10.1498 13.6693 7.49984C13.6693 3.34984 10.5026 0.666504 7.0026 0.666504ZM7.0026 8.99984C6.08594 8.99984 5.33594 8.24984 5.33594 7.33317C5.33594 6.4165 6.08594 5.6665 7.0026 5.6665C7.91927 5.6665 8.66927 6.4165 8.66927 7.33317C8.66927 8.24984 7.91927 8.99984 7.0026 8.99984Z" fill="#237280"/>
</svg>
