<svg width="40" height="40" viewBox="0 0 40 40" fill="none" xmlns="http://www.w3.org/2000/svg">
<g clip-path="url(#clip0_467_11629)">
<path d="M33.332 4.33301H6.66536C4.83203 4.33301 3.3487 5.83301 3.3487 7.66634L3.33203 37.6663L9.9987 30.9997H33.332C35.1654 30.9997 36.6654 29.4997 36.6654 27.6663V7.66634C36.6654 5.83301 35.1654 4.33301 33.332 4.33301ZM33.332 27.6663H8.61537L7.63203 28.6497L6.66536 29.6163V7.66634H33.332V27.6663ZM17.4987 24.333H29.9987V20.9997H20.832L17.4987 24.333ZM23.932 14.5497C24.2654 14.2163 24.2654 13.6997 23.932 13.3663L20.982 10.4163C20.6487 10.083 20.132 10.083 19.7987 10.4163L9.9987 20.2163V24.333H14.1154L23.932 14.5497Z" fill="#237280"/>
</g>
<defs>
<clipPath id="clip0_467_11629">
<rect width="40" height="40" fill="white"/>
</clipPath>
</defs>
</svg>
