<svg width="16" height="15" viewBox="0 0 16 15" fill="none" xmlns="http://www.w3.org/2000/svg">
<path d="M11.125 1.87519C11.2892 1.71104 11.484 1.58082 11.6985 1.49199C11.913 1.40315 12.1429 1.35742 12.375 1.35742C12.6071 1.35742 12.837 1.40315 13.0515 1.49199C13.266 1.58082 13.4608 1.71104 13.625 1.87519C13.7892 2.03934 13.9194 2.23422 14.0082 2.44869C14.097 2.66317 14.1428 2.89304 14.1428 3.12519C14.1428 3.35734 14.097 3.58721 14.0082 3.80168C13.9194 4.01616 13.7892 4.21104 13.625 4.37519L5.1875 12.8127L1.75 13.7502L2.6875 10.3127L11.125 1.87519Z" stroke="#646464" stroke-width="2" stroke-linecap="round" stroke-linejoin="round"/>
</svg>
