<svg width="20" height="20" viewBox="0 0 20 20" fill="none" xmlns="http://www.w3.org/2000/svg">
<path d="M8.25 1H11.75C12.112 0.999817 12.4652 1.10792 12.7609 1.30941C13.0566 1.51089 13.2802 1.79585 13.4008 2.125H15.25C15.7141 2.125 16.1592 2.30279 16.4874 2.61926C16.8156 2.93573 17 3.36495 17 3.8125V17.3125C17 17.7601 16.8156 18.1893 16.4874 18.5057C16.1592 18.8222 15.7141 19 15.25 19H4.75C4.28587 19 3.84075 18.8222 3.51256 18.5057C3.18437 18.1893 3 17.7601 3 17.3125V3.8125C3 3.36495 3.18437 2.93573 3.51256 2.61926C3.84075 2.30279 4.28587 2.125 4.75 2.125H6.59917C6.71985 1.79585 6.94343 1.51089 7.23909 1.30941C7.53476 1.10792 7.88795 0.999817 8.25 1ZM7.66667 2.6875C7.66667 2.83668 7.72812 2.97976 7.83752 3.08525C7.94692 3.19074 8.09529 3.25 8.25 3.25H11.75C11.9047 3.25 12.0531 3.19074 12.1625 3.08525C12.2719 2.97976 12.3333 2.83668 12.3333 2.6875C12.3333 2.53832 12.2719 2.39524 12.1625 2.28975C12.0531 2.18426 11.9047 2.125 11.75 2.125H8.25C8.09529 2.125 7.94692 2.18426 7.83752 2.28975C7.72812 2.39524 7.66667 2.53832 7.66667 2.6875ZM13.2083 9.15625C13.4404 9.15625 13.663 9.06736 13.8271 8.90912C13.9911 8.75089 14.0833 8.53628 14.0833 8.3125C14.0833 8.08872 13.9911 7.87411 13.8271 7.71588C13.663 7.55764 13.4404 7.46875 13.2083 7.46875C12.9763 7.46875 12.7537 7.55764 12.5896 7.71588C12.4255 7.87411 12.3333 8.08872 12.3333 8.3125C12.3333 8.53628 12.4255 8.75089 12.5896 8.90912C12.7537 9.06736 12.9763 9.15625 13.2083 9.15625ZM13.2083 12.5312C13.4404 12.5312 13.663 12.4424 13.8271 12.2841C13.9911 12.1259 14.0833 11.9113 14.0833 11.6875C14.0833 11.4637 13.9911 11.2491 13.8271 11.0909C13.663 10.9326 13.4404 10.8438 13.2083 10.8438C12.9763 10.8438 12.7537 10.9326 12.5896 11.0909C12.4255 11.2491 12.3333 11.4637 12.3333 11.6875C12.3333 11.9113 12.4255 12.1259 12.5896 12.2841C12.7537 12.4424 12.9763 12.5312 13.2083 12.5312ZM12.3333 15.0625C12.3333 15.2863 12.4255 15.5009 12.5896 15.6591C12.7537 15.8174 12.9763 15.9062 13.2083 15.9062C13.4404 15.9062 13.663 15.8174 13.8271 15.6591C13.9911 15.5009 14.0833 15.2863 14.0833 15.0625C14.0833 14.8387 13.9911 14.6241 13.8271 14.4659C13.663 14.3076 13.4404 14.2188 13.2083 14.2188C12.9763 14.2188 12.7537 14.3076 12.5896 14.4659C12.4255 14.6241 12.3333 14.8387 12.3333 15.0625ZM11.1667 8.3125C11.1667 8.16332 11.1052 8.02024 10.9958 7.91475C10.8864 7.80926 10.738 7.75 10.5833 7.75H6.5C6.34529 7.75 6.19692 7.80926 6.08752 7.91475C5.97812 8.02024 5.91667 8.16332 5.91667 8.3125C5.91667 8.46168 5.97812 8.60476 6.08752 8.71025C6.19692 8.81574 6.34529 8.875 6.5 8.875H10.5833C10.738 8.875 10.8864 8.81574 10.9958 8.71025C11.1052 8.60476 11.1667 8.46168 11.1667 8.3125ZM11.1667 11.6875C11.1667 11.5383 11.1052 11.3952 10.9958 11.2898C10.8864 11.1843 10.738 11.125 10.5833 11.125H6.5C6.34529 11.125 6.19692 11.1843 6.08752 11.2898C5.97812 11.3952 5.91667 11.5383 5.91667 11.6875C5.91667 11.8367 5.97812 11.9798 6.08752 12.0852C6.19692 12.1907 6.34529 12.25 6.5 12.25H10.5833C10.738 12.25 10.8864 12.1907 10.9958 12.0852C11.1052 11.9798 11.1667 11.8367 11.1667 11.6875ZM11.1667 15.0625C11.1667 14.9133 11.1052 14.7702 10.9958 14.6648C10.8864 14.5593 10.738 14.5 10.5833 14.5H6.5C6.34529 14.5 6.19692 14.5593 6.08752 14.6648C5.97812 14.7702 5.91667 14.9133 5.91667 15.0625C5.91667 15.2117 5.97812 15.3548 6.08752 15.4602C6.19692 15.5657 6.34529 15.625 6.5 15.625H10.5833C10.738 15.625 10.8864 15.5657 10.9958 15.4602C11.1052 15.3548 11.1667 15.2117 11.1667 15.0625Z" fill="#646464"/>
</svg>
