<svg width="20" height="20" viewBox="0 0 20 20" fill="none" xmlns="http://www.w3.org/2000/svg">
<path d="M14.1667 16.0165H4.16667V5.83317H10V4.1665H4.16667C3.25 4.1665 2.5 4.9165 2.5 5.83317V15.8332C2.5 16.7498 3.25 17.4998 4.16667 17.4998H14.1667C15.0833 17.4998 15.8333 16.7498 15.8333 15.8332V9.99984H14.1667V16.0165Z" fill="#646464"/>
<path d="M15.832 1.6665H14.1654V4.1665H11.6654C11.6737 4.17484 11.6654 5.83317 11.6654 5.83317H14.1654V8.32484C14.1737 8.33317 15.832 8.32484 15.832 8.32484V5.83317H18.332V4.1665H15.832V1.6665ZM5.83203 7.49984H12.4987V9.1665H5.83203V7.49984ZM5.83203 9.99984V11.6665H12.4987V9.99984H9.9987H5.83203ZM5.83203 12.4998H12.4987V14.1665H5.83203V12.4998Z" fill="#646464"/>
</svg>
