<svg width="20" height="20" viewBox="0 0 20 20" fill="none" xmlns="http://www.w3.org/2000/svg">
    <path d="M6 9C7.65685 9 9 7.65685 9 6C9 4.34315 7.65685 3 6 3C4.34315 3 3 4.34315 3 6C3 7.65685 4.34315 9 6 9Z" fill="#646464"/>
    <path d="M14 9C15.6569 9 17 7.65685 17 6C17 4.34315 15.6569 3 14 3C12.3431 3 11 4.34315 11 6C11 7.65685 12.3431 9 14 9Z" fill="#646464"/>
    <path d="M14 10C17.31 10 20 11.79 20 14V16H14V14C14 12.52 12.79 11.23 11 10.54C11.88 10.19 12.91 10 14 10ZM6 10C9.31 10 12 11.79 12 14V16H0V14C0 11.79 2.69 10 6 10Z" fill="#646464"/>
</svg>