<svg width="17" height="14" viewBox="0 0 17 14" fill="none" xmlns="http://www.w3.org/2000/svg">
<path d="M8.76367 7.66406L3.45117 12.9766C3.08398 13.3438 2.49023 13.3438 2.12695 12.9766L1.24414 12.0938C0.876953 11.7266 0.876953 11.1328 1.24414 10.7695L5.00977 7.00391L1.24414 3.23828C0.876953 2.87109 0.876953 2.27734 1.24414 1.91406L2.12305 1.02344C2.49023 0.65625 3.08398 0.65625 3.44727 1.02344L8.75977 6.33594C9.13086 6.70313 9.13086 7.29688 8.76367 7.66406ZM16.2637 6.33594L10.9512 1.02344C10.584 0.65625 9.99023 0.65625 9.62695 1.02344L8.74414 1.90625C8.37695 2.27344 8.37695 2.86719 8.74414 3.23047L12.5098 6.99609L8.74414 10.7617C8.37695 11.1289 8.37695 11.7227 8.74414 12.0859L9.62695 12.9688C9.99414 13.3359 10.5879 13.3359 10.9512 12.9688L16.2637 7.65625C16.6309 7.29688 16.6309 6.70313 16.2637 6.33594Z" fill="#237280"/>
</svg>
