<svg width="16" height="16" viewBox="0 0 16 16" fill="none" xmlns="http://www.w3.org/2000/svg">
<path d="M6.74912 11.7501C7.40573 11.7501 8.05591 11.6208 8.66253 11.3695C9.26916 11.1182 9.82036 10.7499 10.2847 10.2856C10.7489 9.82133 11.1172 9.27014 11.3685 8.66351C11.6198 8.05688 11.7491 7.4067 11.7491 6.75009C11.7491 6.09348 11.6198 5.4433 11.3685 4.83668C11.1172 4.23005 10.7489 3.67885 10.2847 3.21456C9.82036 2.75027 9.26916 2.38197 8.66253 2.1307C8.05591 1.87942 7.40573 1.75009 6.74912 1.75009C5.42304 1.75009 4.15127 2.27688 3.21358 3.21456C2.2759 4.15224 1.74912 5.42401 1.74912 6.75009C1.74912 8.07618 2.2759 9.34795 3.21358 10.2856C4.15127 11.2233 5.42304 11.7501 6.74912 11.7501ZM12.0158 10.8384L14.9991 13.8218C15.0787 13.8987 15.1421 13.9907 15.1857 14.0924C15.2293 14.1941 15.2522 14.3035 15.2531 14.4141C15.2539 14.5248 15.2328 14.6345 15.1908 14.7369C15.1488 14.8392 15.0869 14.9322 15.0086 15.0104C14.9303 15.0886 14.8372 15.1504 14.7348 15.1922C14.6323 15.2341 14.5226 15.2551 14.4119 15.254C14.3013 15.253 14.192 15.2299 14.0903 15.1862C13.9887 15.1425 13.8968 15.0789 13.82 14.9993L10.8366 12.0159C9.497 13.0558 7.81145 13.5461 6.12308 13.3869C4.43471 13.2278 2.87045 12.4312 1.74874 11.1593C0.627031 9.88743 0.0321879 8.23588 0.0853054 6.54086C0.138423 4.84585 0.835508 3.23478 2.03466 2.03563C3.2338 0.836485 4.84487 0.1394 6.53989 0.086282C8.23491 0.0331644 9.88646 0.628008 11.1583 1.74972C12.4302 2.87143 13.2268 4.43569 13.3859 6.12406C13.5451 7.81242 13.0548 9.49798 12.015 10.8376L12.0158 10.8384Z" fill="white"/>
</svg>
